<svg width="98" height="24" viewBox="0 0 98 24" fill="none" xmlns="http://www.w3.org/2000/svg">
<path d="M31.8543 3.13331C31.8543 3.82665 31.6805 4.43331 31.2459 4.77998C30.8113 5.29998 30.1159 5.55998 29.4205 5.55998C28.7251 5.55998 28.0297 5.29998 27.5951 4.77998C27.0735 4.25998 26.8127 3.65331 26.8127 2.87331C26.8127 2.09331 27.0735 1.48665 27.5951 0.966645C28.1166 0.446645 28.7251 0.186646 29.4205 0.186646C29.7682 0.186646 30.1159 0.273312 30.4636 0.359979C30.8113 0.533312 31.072 0.706645 31.2459 0.966645L30.8113 1.39998C30.4636 0.966645 30.0289 0.793312 29.4205 0.793312C28.8989 0.793312 28.4643 0.966645 28.0297 1.31331C27.682 1.65998 27.4212 2.17998 27.4212 2.78665C27.4212 3.39331 27.5951 3.91331 28.0297 4.25998C28.3774 4.60665 28.8989 4.77998 29.4205 4.77998C30.0289 4.77998 30.4636 4.60665 30.8113 4.17331C31.072 3.91331 31.159 3.56665 31.2459 3.13331H29.4205V2.52665H31.8543C31.7674 2.95998 31.8543 3.04665 31.8543 3.13331Z" fill="white" stroke="white" stroke-width="0.1944" stroke-miterlimit="10"/>
<path d="M35.6791 1.05332H33.3321V2.61332H35.4183V3.21999H33.3321V4.86666H35.6791V5.47332H32.7236V0.446655H35.6791V1.05332Z" fill="white" stroke="white" stroke-width="0.1944" stroke-miterlimit="10"/>
<path d="M38.4607 5.47332H37.7653V1.05332H36.3745V0.446655H39.8515V1.05332H38.4607V5.47332Z" fill="white" stroke="white" stroke-width="0.1944" stroke-miterlimit="10"/>
<path d="M42.3721 5.47332V0.446655H42.9805V5.47332H42.3721Z" fill="white" stroke="white" stroke-width="0.1944" stroke-miterlimit="10"/>
<path d="M45.936 5.47332H45.2406V1.05332H43.8499V0.446655H47.3268V1.05332H45.936V5.47332Z" fill="white" stroke="white" stroke-width="0.1944" stroke-miterlimit="10"/>
<path d="M53.9331 4.86665C53.4116 5.38665 52.8031 5.64665 52.1077 5.64665C51.3254 5.64665 50.7169 5.38665 50.2823 4.86665C49.7608 4.34665 49.5 3.73998 49.5 2.95998C49.5 2.17998 49.7608 1.57332 50.2823 1.05332C50.8039 0.533316 51.4123 0.273315 52.1077 0.273315C52.8031 0.273315 53.4985 0.533316 53.9331 1.05332C54.4547 1.57332 54.7155 2.17998 54.7155 2.95998C54.7155 3.73998 54.4547 4.34665 53.9331 4.86665ZM50.7169 4.43332C51.0646 4.77998 51.5862 5.03998 52.1077 5.03998C52.6293 5.03998 53.1508 4.86665 53.4985 4.43332C53.8462 4.08665 54.0201 3.56665 54.0201 2.95998C54.0201 2.35332 53.8462 1.91998 53.4985 1.48665C53.1508 1.13998 52.6293 0.879982 52.1077 0.879982C51.5862 0.879982 51.0646 1.05332 50.7169 1.48665C50.3692 1.83332 50.1954 2.35332 50.1954 2.95998C50.1085 3.56665 50.3692 3.99998 50.7169 4.43332Z" fill="white" stroke="white" stroke-width="0.1944" stroke-miterlimit="10"/>
<path d="M55.5847 5.47332V0.446655H56.367L58.8009 4.34666V3.39332V0.446655H59.4963V5.47332H58.8009L56.1932 1.31332V2.26666V5.38666H55.5847V5.47332Z" fill="white" stroke="white" stroke-width="0.1944" stroke-miterlimit="10"/>
<path d="M49.3262 12.8399C47.3269 12.8399 45.6753 14.3133 45.6753 16.3933C45.6753 18.4733 47.3269 19.9466 49.3262 19.9466C51.3254 19.9466 52.977 18.3866 52.977 16.3933C52.8901 14.3999 51.3254 12.8399 49.3262 12.8399ZM49.3262 18.6466C48.1961 18.6466 47.3269 17.7799 47.3269 16.4799C47.3269 15.1799 48.2831 14.3133 49.3262 14.3133C50.4562 14.3133 51.3254 15.1799 51.3254 16.4799C51.3254 17.6933 50.3692 18.6466 49.3262 18.6466ZM41.4161 12.8399C39.4168 12.8399 37.7652 14.3133 37.7652 16.3933C37.7652 18.4733 39.4168 19.9466 41.4161 19.9466C43.4153 19.9466 45.0669 18.3866 45.0669 16.3933C45.0669 14.3999 43.4153 12.8399 41.4161 12.8399ZM41.4161 18.6466C40.286 18.6466 39.4168 17.7799 39.4168 16.4799C39.4168 15.1799 40.373 14.3133 41.4161 14.3133C42.5461 14.3133 43.4153 15.1799 43.4153 16.4799C43.5022 17.6933 42.5461 18.6466 41.4161 18.6466ZM32.1152 13.9666V15.5266H35.766C35.6791 16.3933 35.3314 16.9999 34.8967 17.4333C34.3752 17.9533 33.5059 18.5599 32.1152 18.5599C29.8551 18.5599 28.1166 16.7399 28.1166 14.4866C28.1166 12.2333 29.8551 10.4133 32.1152 10.4133C33.3321 10.4133 34.2013 10.8466 34.8967 11.5399L35.9398 10.4999C35.0706 9.63327 33.8536 8.93994 32.1152 8.93994C29.0728 8.93994 26.4651 11.4533 26.4651 14.4866C26.4651 17.5199 29.0728 20.0333 32.1152 20.0333C33.7667 20.0333 35.0706 19.5133 36.0268 18.4733C37.0698 17.4333 37.3306 16.0466 37.3306 14.9199C37.3306 14.5733 37.3306 14.2266 37.2437 13.9666H32.1152ZM70.3618 15.1799C70.101 14.3999 69.1449 12.9266 67.3195 12.9266C65.4941 12.9266 63.9294 14.3999 63.9294 16.4799C63.9294 18.4733 65.4941 20.0333 67.4933 20.0333C69.1449 20.0333 70.101 18.9933 70.4487 18.4733L69.2318 17.6066C68.7972 18.2133 68.2756 18.5599 67.4933 18.5599C66.711 18.5599 66.1025 18.2133 65.7548 17.4333L70.5357 15.4399L70.3618 15.1799ZM65.4941 16.3066C65.4941 14.9199 66.5372 14.2266 67.4064 14.2266C68.0149 14.2266 68.5364 14.5733 68.7103 15.0066L65.4941 16.3066ZM61.5825 19.8599H63.1471V9.28661H61.5825V19.8599ZM58.9747 13.7066C58.5401 13.2733 57.8447 12.9266 57.0624 12.9266C55.237 12.9266 53.5854 14.4866 53.5854 16.5666C53.5854 18.5599 55.237 20.1199 57.0624 20.1199C57.9317 20.1199 58.627 19.7733 58.9747 19.3399H59.0617V19.8599C59.0617 21.2466 58.3663 21.9399 57.1493 21.9399C56.1932 21.9399 55.5847 21.2466 55.3239 20.6399L53.9331 21.2466C54.3678 22.1999 55.4109 23.3266 57.1493 23.3266C58.9747 23.3266 60.5394 22.1999 60.5394 19.5999V13.1866H59.0617V13.7066H58.9747ZM57.1493 18.6466C56.0193 18.6466 55.1501 17.7799 55.1501 16.4799C55.1501 15.1799 56.0193 14.3133 57.1493 14.3133C58.1924 14.3133 59.0617 15.2666 59.0617 16.4799C59.0617 17.6933 58.2794 18.6466 57.1493 18.6466ZM77.7504 9.28661H74.0126V19.8599H75.5773V15.8733H77.7504C79.4889 15.8733 81.2273 14.5733 81.2273 12.5799C81.2273 10.5866 79.4889 9.28661 77.7504 9.28661ZM77.8373 14.3999H75.5773V10.7599H77.8373C79.0542 10.7599 79.6627 11.7133 79.6627 12.5799C79.6627 13.3599 78.9673 14.3999 77.8373 14.3999ZM87.5728 12.8399C86.4428 12.8399 85.2259 13.3599 84.7912 14.4866L86.182 15.0933C86.4428 14.4866 87.0513 14.3133 87.6597 14.3133C88.4421 14.3133 89.3113 14.8333 89.3113 15.6999V15.7866C89.0505 15.6133 88.4421 15.3533 87.6597 15.3533C86.182 15.3533 84.6174 16.2199 84.6174 17.6933C84.6174 19.0799 85.8343 20.0333 87.2251 20.0333C88.2682 20.0333 88.8767 19.5999 89.2244 18.9933H89.3113V19.7733H90.8759V15.6999C90.789 13.8799 89.3982 12.8399 87.5728 12.8399ZM87.399 18.6466C86.8774 18.6466 86.182 18.3866 86.182 17.7799C86.182 16.9999 87.0513 16.6533 87.8336 16.6533C88.529 16.6533 88.8767 16.8266 89.3113 16.9999C89.1375 17.9533 88.2682 18.6466 87.399 18.6466ZM96.3522 13.0999L94.5268 17.6933H94.4398L92.5275 13.0999H90.789L93.5706 19.5133L92.0059 23.0666H93.6575L98.0037 13.0999H96.3522ZM82.0966 19.8599H83.6612V9.28661H82.0966V19.8599Z" fill="white"/>
<path d="M0.561564 0.880005C0.300791 1.14 0.213867 1.57334 0.213867 2.09334V20.7267C0.213867 21.2467 0.387715 21.68 0.561564 21.94L0.648488 22.0267L11.0794 11.6267V11.54V11.4533L0.561564 0.880005Z" fill="#5BC8F3"/>
<path d="M14.5563 15.0067L11.0793 11.54V11.4534V11.3667L14.5563 7.90002L14.6432 7.98669L18.8156 10.3267C20.0325 11.02 20.0325 12.06 18.8156 12.7534L14.5563 15.0067Z" fill="url(#paint0_linear_2_1076)"/>
<path d="M14.6432 14.92L11.0794 11.3667L0.561523 21.8534C0.90922 22.2867 1.60461 22.2867 2.30001 21.94L14.6432 14.92Z" fill="url(#paint1_linear_2_1076)"/>
<path d="M14.6432 7.81332L2.30001 0.879988C1.60461 0.446655 0.90922 0.533322 0.561523 0.966655L11.0794 11.4533L14.6432 7.81332Z" fill="url(#paint2_linear_2_1076)"/>
<defs>
<linearGradient id="paint0_linear_2_1076" x1="18.0103" y1="11.395" x2="-2.4219" y2="11.395" gradientUnits="userSpaceOnUse">
<stop stop-color="#FFDF00"/>
<stop offset="0.4087" stop-color="#FBBC0E"/>
<stop offset="0.7754" stop-color="#F9A418"/>
<stop offset="1" stop-color="#F89B1C"/>
</linearGradient>
<linearGradient id="paint1_linear_2_1076" x1="12.708" y1="13.327" x2="-6.45256" y2="32.5445" gradientUnits="userSpaceOnUse">
<stop stop-color="#EE4447"/>
<stop offset="1" stop-color="#C5166C"/>
</linearGradient>
<linearGradient id="paint2_linear_2_1076" x1="-6.59521" y1="-9.78357" x2="9.04884" y2="5.90697" gradientUnits="userSpaceOnUse">
<stop stop-color="#269E6F"/>
<stop offset="0.05089" stop-color="#2BA06F"/>
<stop offset="0.4663" stop-color="#53B26B"/>
<stop offset="0.7971" stop-color="#6BBD69"/>
<stop offset="1" stop-color="#74C168"/>
</linearGradient>
</defs>
</svg>
