<?xml version="1.0" encoding="UTF-8" standalone="no"?>
<!DOCTYPE svg PUBLIC "-//W3C//DTD SVG 1.1//EN" "http://www.w3.org/Graphics/SVG/1.1/DTD/svg11.dtd">
<!-- Created with Vectornator (http://vectornator.io/) -->
<svg height="70.0pt" stroke-miterlimit="10" style="fill-rule:nonzero;clip-rule:evenodd;stroke-linecap:round;stroke-linejoin:round;" version="1.1" viewBox="0 0 70 70" width="70.0pt" xml:space="preserve" xmlns="http://www.w3.org/2000/svg" xmlns:xlink="http://www.w3.org/1999/xlink">
<defs/>
<g id="Без-названия">
<path d="M0 10.915C0 4.8868 4.8868 0 10.915 0L59.085 0C65.1132 0 70 4.8868 70 10.915L70 59.085C70 65.1132 65.1132 70 59.085 70L10.915 70C4.8868 70 0 65.1132 0 59.085L0 10.915Z" fill="#cd0511" fill-rule="nonzero" opacity="1" stroke="none"/>
<g opacity="1">
<path d="M10.4522 15.3778L10.4522 30.4368L26.0573 30.4368L26.0573 15.3778L34.5345 15.3778L34.5345 54.6222L26.0573 54.6222L26.0573 37.694L10.4522 37.694L10.4522 54.6222L1.97496 54.6222L1.97496 15.3778L10.4522 15.3778Z" fill="#ffffff" fill-rule="nonzero" opacity="1" stroke="none"/>
<path d="M68.0197 15.3778L68.0197 22.635L49.3918 22.635L49.3918 31.7039L65.5357 31.7039L65.5357 38.4113L49.3918 38.4113L49.3918 54.6222L40.9146 54.6222L40.9146 15.3778L68.025 15.3778L68.0197 15.3778Z" fill="#ffffff" fill-rule="nonzero" opacity="1" stroke="none"/>
</g>
</g>
</svg>
